<svg xmlns="http://www.w3.org/2000/svg" xmlns:xlink="http://www.w3.org/1999/xlink" width="154" zoomAndPan="magnify" viewBox="0 0 115.5 42.75" height="57" preserveAspectRatio="xMidYMid meet" version="1.0"><defs><g/><clipPath id="6d5be6f739"><path d="M 75 14 L 93 14 L 93 42.5 L 75 42.5 Z M 75 14 " clip-rule="nonzero"/></clipPath><clipPath id="ac3baa727f"><path d="M 2.957031 34.261719 L 20.777344 34.261719 L 20.777344 39.445312 L 2.957031 39.445312 Z M 2.957031 34.261719 " clip-rule="nonzero"/></clipPath></defs><g fill="#ffffff" fill-opacity="1"><g transform="translate(2.279855, 32.559599)"><g><path d="M 6.40625 -17.921875 C 6.382812 -17.710938 6.378906 -17.488281 6.390625 -17.25 C 6.398438 -17.019531 6.40625 -16.769531 6.40625 -16.5 C 6.976562 -16.820312 7.523438 -17.140625 8.046875 -17.453125 C 8.578125 -17.765625 9.109375 -18.035156 9.640625 -18.265625 C 11.191406 -18.960938 12.648438 -19.0625 14.015625 -18.5625 C 15.390625 -18.0625 16.472656 -17.070312 17.265625 -15.59375 C 18.117188 -13.988281 18.566406 -12.394531 18.609375 -10.8125 C 18.660156 -9.238281 18.351562 -7.785156 17.6875 -6.453125 C 17.03125 -5.117188 16.066406 -4.003906 14.796875 -3.109375 C 13.535156 -2.222656 12.015625 -1.675781 10.234375 -1.46875 C 9.554688 -1.394531 8.863281 -1.441406 8.15625 -1.609375 C 7.445312 -1.785156 6.742188 -1.921875 6.046875 -2.015625 C 5.835938 -2.035156 5.613281 -2.054688 5.375 -2.078125 C 5.132812 -2.109375 4.921875 -2.085938 4.734375 -2.015625 C 3.785156 -1.648438 2.976562 -1.664062 2.3125 -2.0625 C 1.65625 -2.46875 1.328125 -3.179688 1.328125 -4.203125 C 1.296875 -5.347656 1.289062 -6.484375 1.3125 -7.609375 C 1.34375 -8.734375 1.414062 -9.851562 1.53125 -10.96875 C 1.757812 -13.238281 2.019531 -15.5 2.3125 -17.75 C 2.601562 -20 2.898438 -22.25 3.203125 -24.5 C 3.273438 -25.007812 3.390625 -25.503906 3.546875 -25.984375 C 3.710938 -26.472656 3.910156 -26.953125 4.140625 -27.421875 C 4.234375 -27.628906 4.378906 -27.8125 4.578125 -27.96875 C 4.773438 -28.132812 5.234375 -28.242188 5.953125 -28.296875 C 6.316406 -28.316406 6.691406 -28.226562 7.078125 -28.03125 C 7.460938 -27.832031 7.753906 -27.460938 7.953125 -26.921875 C 8.148438 -26.390625 8.15625 -25.660156 7.96875 -24.734375 C 7.894531 -23.765625 7.753906 -22.953125 7.546875 -22.296875 C 7.335938 -21.648438 7.128906 -20.992188 6.921875 -20.328125 C 6.710938 -19.671875 6.539062 -18.867188 6.40625 -17.921875 Z M 6.890625 -6.953125 C 7.628906 -6.722656 8.378906 -6.695312 9.140625 -6.875 C 9.910156 -7.050781 10.617188 -7.367188 11.265625 -7.828125 C 11.921875 -8.296875 12.445312 -8.863281 12.84375 -9.53125 C 13.238281 -10.207031 13.445312 -10.941406 13.46875 -11.734375 C 13.394531 -12.054688 13.332031 -12.394531 13.28125 -12.75 C 13.238281 -13.113281 13.140625 -13.445312 12.984375 -13.75 C 12.890625 -13.925781 12.703125 -14.082031 12.421875 -14.21875 C 12.140625 -14.363281 11.910156 -14.425781 11.734375 -14.40625 C 11.222656 -14.289062 10.664062 -13.988281 10.0625 -13.5 C 9.457031 -13.007812 8.867188 -12.425781 8.296875 -11.75 C 7.734375 -11.082031 7.265625 -10.40625 6.890625 -9.71875 C 6.515625 -9.039062 6.304688 -8.445312 6.265625 -7.9375 C 6.265625 -7.769531 6.332031 -7.578125 6.46875 -7.359375 C 6.613281 -7.140625 6.753906 -7.003906 6.890625 -6.953125 Z M 6.890625 -6.953125 "/></g></g></g><g fill="#ffffff" fill-opacity="1"><g transform="translate(22.213756, 32.559599)"><g><path d="M 15.625 -13.8125 C 15.71875 -13.488281 15.734375 -13.113281 15.671875 -12.6875 C 15.617188 -12.257812 15.488281 -11.925781 15.28125 -11.6875 C 15.09375 -11.457031 14.796875 -11.300781 14.390625 -11.21875 C 13.984375 -11.132812 13.601562 -11.109375 13.25 -11.140625 C 12.90625 -11.160156 12.554688 -11.253906 12.203125 -11.421875 C 11.859375 -11.597656 11.523438 -11.769531 11.203125 -11.9375 C 10.742188 -12.164062 10.335938 -12.226562 9.984375 -12.125 C 9.640625 -12.019531 9.394531 -11.75 9.25 -11.3125 C 8.675781 -9.707031 8.203125 -8.0625 7.828125 -6.375 C 7.734375 -6 7.710938 -5.609375 7.765625 -5.203125 C 7.828125 -4.796875 7.835938 -4.394531 7.796875 -4 C 7.722656 -3.144531 7.398438 -2.441406 6.828125 -1.890625 C 6.265625 -1.347656 5.585938 -1.054688 4.796875 -1.015625 C 3.984375 -0.960938 3.273438 -1.171875 2.671875 -1.640625 C 2.078125 -2.117188 1.675781 -2.78125 1.46875 -3.625 C 1.414062 -3.832031 1.367188 -4.039062 1.328125 -4.25 C 1.296875 -4.457031 1.28125 -4.675781 1.28125 -4.90625 C 1.3125 -6.96875 1.332031 -9.035156 1.34375 -11.109375 C 1.351562 -13.191406 1.367188 -15.265625 1.390625 -17.328125 C 1.390625 -17.535156 1.398438 -17.757812 1.421875 -18 C 1.453125 -18.25 1.535156 -18.441406 1.671875 -18.578125 C 1.898438 -18.859375 2.160156 -19.15625 2.453125 -19.46875 C 2.742188 -19.78125 3.039062 -19.945312 3.34375 -19.96875 C 3.644531 -20 3.972656 -19.898438 4.328125 -19.671875 C 4.691406 -19.453125 5 -19.203125 5.25 -18.921875 C 5.457031 -18.691406 5.613281 -18.394531 5.71875 -18.03125 C 5.820312 -17.675781 5.945312 -17.316406 6.09375 -16.953125 C 8.320312 -18.148438 10.523438 -18.191406 12.703125 -17.078125 C 13.421875 -16.734375 14.035156 -16.296875 14.546875 -15.765625 C 15.054688 -15.234375 15.414062 -14.582031 15.625 -13.8125 Z M 15.625 -13.8125 "/></g></g></g><g fill="#ffffff" fill-opacity="1"><g transform="translate(39.22541, 32.559599)"><g><path d="M 17.890625 -6.953125 C 18.117188 -5.910156 18.128906 -5.035156 17.921875 -4.328125 C 17.710938 -3.617188 17.269531 -3.128906 16.59375 -2.859375 C 15.875 -2.554688 15.164062 -2.5625 14.46875 -2.875 C 13.78125 -3.1875 13.132812 -3.78125 12.53125 -4.65625 C 12.476562 -4.726562 12.414062 -4.804688 12.34375 -4.890625 C 12.28125 -4.972656 12.210938 -5.070312 12.140625 -5.1875 C 11.953125 -5.070312 11.78125 -4.945312 11.625 -4.8125 C 11.476562 -4.6875 11.316406 -4.578125 11.140625 -4.484375 C 10.648438 -4.253906 10.160156 -4.003906 9.671875 -3.734375 C 9.179688 -3.472656 8.671875 -3.285156 8.140625 -3.171875 C 6.835938 -2.835938 5.644531 -2.890625 4.5625 -3.328125 C 3.488281 -3.773438 2.648438 -4.5 2.046875 -5.5 C 1.441406 -6.5 1.203125 -7.671875 1.328125 -9.015625 C 1.390625 -10.097656 1.671875 -11.160156 2.171875 -12.203125 C 2.671875 -13.253906 3.304688 -14.222656 4.078125 -15.109375 C 4.859375 -16.003906 5.734375 -16.753906 6.703125 -17.359375 C 7.679688 -17.960938 8.679688 -18.347656 9.703125 -18.515625 C 10.867188 -18.722656 11.921875 -18.597656 12.859375 -18.140625 C 13.796875 -17.691406 14.691406 -17.144531 15.546875 -16.5 C 15.828125 -16.289062 16.03125 -15.960938 16.15625 -15.515625 C 16.289062 -15.078125 16.390625 -14.660156 16.453125 -14.265625 C 16.734375 -13.054688 16.976562 -11.835938 17.1875 -10.609375 C 17.394531 -9.378906 17.628906 -8.160156 17.890625 -6.953125 Z M 7.828125 -8.21875 C 8.898438 -8.632812 9.710938 -9.410156 10.265625 -10.546875 C 10.816406 -11.679688 10.976562 -12.910156 10.75 -14.234375 C 9.59375 -13.765625 8.679688 -13.109375 8.015625 -12.265625 C 7.359375 -11.421875 6.832031 -10.453125 6.4375 -9.359375 C 6.394531 -9.191406 6.375 -8.96875 6.375 -8.6875 C 6.375 -8.414062 6.414062 -8.257812 6.5 -8.21875 C 6.6875 -8.125 6.898438 -8.078125 7.140625 -8.078125 C 7.390625 -8.078125 7.617188 -8.125 7.828125 -8.21875 Z M 7.828125 -8.21875 "/></g></g></g><g fill="#ffffff" fill-opacity="1"><g transform="translate(58.602698, 32.559599)"><g><path d="M 14.546875 -6.046875 C 14.734375 -5.515625 14.742188 -5.03125 14.578125 -4.59375 C 14.421875 -4.15625 14.144531 -3.75 13.75 -3.375 C 13.164062 -2.84375 12.429688 -2.484375 11.546875 -2.296875 C 10.671875 -2.109375 9.769531 -2.085938 8.84375 -2.234375 C 7.914062 -2.390625 7.113281 -2.734375 6.4375 -3.265625 C 4.8125 -4.492188 3.894531 -6.128906 3.6875 -8.171875 C 3.59375 -8.867188 3.535156 -9.578125 3.515625 -10.296875 C 3.492188 -11.015625 3.46875 -11.722656 3.4375 -12.421875 C 3.4375 -12.765625 3.382812 -13.046875 3.28125 -13.265625 C 3.175781 -13.492188 2.960938 -13.664062 2.640625 -13.78125 C 2.179688 -13.96875 1.816406 -14.234375 1.546875 -14.578125 C 1.273438 -14.929688 1.210938 -15.335938 1.359375 -15.796875 C 1.472656 -16.140625 1.675781 -16.476562 1.96875 -16.8125 C 2.257812 -17.15625 2.566406 -17.382812 2.890625 -17.5 C 3.304688 -17.6875 3.625 -17.894531 3.84375 -18.125 C 4.0625 -18.363281 4.179688 -18.710938 4.203125 -19.171875 C 4.234375 -19.585938 4.285156 -20 4.359375 -20.40625 C 4.441406 -20.8125 4.519531 -21.222656 4.59375 -21.640625 C 4.84375 -23.054688 5.457031 -23.753906 6.4375 -23.734375 C 7.4375 -23.710938 8.039062 -22.992188 8.25 -21.578125 C 8.3125 -21.085938 8.347656 -20.59375 8.359375 -20.09375 C 8.378906 -19.59375 8.390625 -19.097656 8.390625 -18.609375 C 8.390625 -17.960938 8.710938 -17.628906 9.359375 -17.609375 C 9.773438 -17.585938 10.191406 -17.554688 10.609375 -17.515625 C 11.023438 -17.484375 11.429688 -17.421875 11.828125 -17.328125 C 12.484375 -17.160156 12.984375 -16.828125 13.328125 -16.328125 C 13.671875 -15.835938 13.820312 -15.300781 13.78125 -14.71875 C 13.726562 -14.113281 13.484375 -13.597656 13.046875 -13.171875 C 12.609375 -12.742188 12.0625 -12.503906 11.40625 -12.453125 C 10.945312 -12.410156 10.46875 -12.394531 9.96875 -12.40625 C 9.46875 -12.414062 8.894531 -12.421875 8.25 -12.421875 C 8.34375 -11.722656 8.421875 -11.019531 8.484375 -10.3125 C 8.554688 -9.601562 8.648438 -8.90625 8.765625 -8.21875 C 8.859375 -7.789062 9.0625 -7.484375 9.375 -7.296875 C 9.6875 -7.117188 10.050781 -7.050781 10.46875 -7.09375 C 10.75 -7.144531 11.019531 -7.195312 11.28125 -7.25 C 11.550781 -7.3125 11.828125 -7.351562 12.109375 -7.375 C 12.640625 -7.425781 13.117188 -7.351562 13.546875 -7.15625 C 13.984375 -6.957031 14.316406 -6.585938 14.546875 -6.046875 Z M 14.546875 -6.046875 "/></g></g></g><g clip-path="url(#6d5be6f739)"><g fill="#ffffff" fill-opacity="1"><g transform="translate(74.605482, 32.559599)"><g><path d="M 15.875 -17.5 C 16.519531 -17.195312 16.972656 -16.707031 17.234375 -16.03125 C 17.503906 -15.363281 17.488281 -14.585938 17.1875 -13.703125 C 16.820312 -12.566406 16.421875 -11.4375 15.984375 -10.3125 C 15.554688 -9.1875 15.078125 -8.082031 14.546875 -7 C 13.410156 -4.625 12.238281 -2.273438 11.03125 0.046875 C 9.820312 2.378906 8.613281 4.707031 7.40625 7.03125 C 7.226562 7.375 7.019531 7.71875 6.78125 8.0625 C 6.550781 8.414062 6.273438 8.675781 5.953125 8.84375 C 5.160156 9.257812 4.3125 9.375 3.40625 9.1875 C 2.945312 9.09375 2.585938 8.84375 2.328125 8.4375 C 2.078125 8.03125 1.960938 7.582031 1.984375 7.09375 C 1.984375 6.675781 2.015625 6.257812 2.078125 5.84375 C 2.148438 5.425781 2.257812 5.03125 2.40625 4.65625 C 2.769531 3.726562 3.148438 2.800781 3.546875 1.875 C 3.941406 0.945312 4.359375 0.03125 4.796875 -0.875 C 4.941406 -1.21875 5.019531 -1.53125 5.03125 -1.8125 C 5.039062 -2.09375 4.960938 -2.40625 4.796875 -2.75 C 4.265625 -3.957031 3.734375 -5.171875 3.203125 -6.390625 C 2.671875 -7.609375 2.195312 -8.832031 1.78125 -10.0625 C 1.539062 -10.75 1.410156 -11.460938 1.390625 -12.203125 C 1.367188 -12.953125 1.332031 -13.6875 1.28125 -14.40625 C 1.257812 -14.84375 1.328125 -15.25 1.484375 -15.625 C 1.648438 -16 1.976562 -16.253906 2.46875 -16.390625 C 3 -16.523438 3.414062 -16.445312 3.71875 -16.15625 C 4.019531 -15.875 4.265625 -15.523438 4.453125 -15.109375 C 4.847656 -14.265625 5.226562 -13.421875 5.59375 -12.578125 C 5.96875 -11.734375 6.351562 -10.878906 6.75 -10.015625 C 6.863281 -9.785156 6.992188 -9.546875 7.140625 -9.296875 C 7.296875 -9.054688 7.46875 -8.765625 7.65625 -8.421875 C 7.90625 -8.878906 8.132812 -9.296875 8.34375 -9.671875 C 8.5625 -10.046875 8.773438 -10.40625 8.984375 -10.75 C 9.515625 -11.632812 10.039062 -12.515625 10.5625 -13.390625 C 11.082031 -14.273438 11.617188 -15.144531 12.171875 -16 C 12.679688 -16.789062 13.257812 -17.3125 13.90625 -17.5625 C 14.5625 -17.820312 15.21875 -17.800781 15.875 -17.5 Z M 15.875 -17.5 "/></g></g></g></g><g fill="#ffffff" fill-opacity="1"><g transform="translate(93.321779, 32.559599)"><g><path d="M 17.890625 -6.953125 C 18.117188 -5.910156 18.128906 -5.035156 17.921875 -4.328125 C 17.710938 -3.617188 17.269531 -3.128906 16.59375 -2.859375 C 15.875 -2.554688 15.164062 -2.5625 14.46875 -2.875 C 13.78125 -3.1875 13.132812 -3.78125 12.53125 -4.65625 C 12.476562 -4.726562 12.414062 -4.804688 12.34375 -4.890625 C 12.28125 -4.972656 12.210938 -5.070312 12.140625 -5.1875 C 11.953125 -5.070312 11.78125 -4.945312 11.625 -4.8125 C 11.476562 -4.6875 11.316406 -4.578125 11.140625 -4.484375 C 10.648438 -4.253906 10.160156 -4.003906 9.671875 -3.734375 C 9.179688 -3.472656 8.671875 -3.285156 8.140625 -3.171875 C 6.835938 -2.835938 5.644531 -2.890625 4.5625 -3.328125 C 3.488281 -3.773438 2.648438 -4.5 2.046875 -5.5 C 1.441406 -6.5 1.203125 -7.671875 1.328125 -9.015625 C 1.390625 -10.097656 1.671875 -11.160156 2.171875 -12.203125 C 2.671875 -13.253906 3.304688 -14.222656 4.078125 -15.109375 C 4.859375 -16.003906 5.734375 -16.753906 6.703125 -17.359375 C 7.679688 -17.960938 8.679688 -18.347656 9.703125 -18.515625 C 10.867188 -18.722656 11.921875 -18.597656 12.859375 -18.140625 C 13.796875 -17.691406 14.691406 -17.144531 15.546875 -16.5 C 15.828125 -16.289062 16.03125 -15.960938 16.15625 -15.515625 C 16.289062 -15.078125 16.390625 -14.660156 16.453125 -14.265625 C 16.734375 -13.054688 16.976562 -11.835938 17.1875 -10.609375 C 17.394531 -9.378906 17.628906 -8.160156 17.890625 -6.953125 Z M 7.828125 -8.21875 C 8.898438 -8.632812 9.710938 -9.410156 10.265625 -10.546875 C 10.816406 -11.679688 10.976562 -12.910156 10.75 -14.234375 C 9.59375 -13.765625 8.679688 -13.109375 8.015625 -12.265625 C 7.359375 -11.421875 6.832031 -10.453125 6.4375 -9.359375 C 6.394531 -9.191406 6.375 -8.96875 6.375 -8.6875 C 6.375 -8.414062 6.414062 -8.257812 6.5 -8.21875 C 6.6875 -8.125 6.898438 -8.078125 7.140625 -8.078125 C 7.390625 -8.078125 7.617188 -8.125 7.828125 -8.21875 Z M 7.828125 -8.21875 "/></g></g></g><g clip-path="url(#ac3baa727f)"><path fill="#ed6755" d="M 2.957031 34.261719 L 20.773438 34.261719 L 20.773438 39.445312 L 2.957031 39.445312 Z M 2.957031 34.261719 " fill-opacity="1" fill-rule="nonzero"/></g></svg>